<?xml version="1.0" encoding="utf-8"?>
<!-- Generator: Adobe Illustrator 26.0.3, SVG Export Plug-In . SVG Version: 6.00 Build 0)  -->
<svg version="1.0" id="katman_1" xmlns="http://www.w3.org/2000/svg" xmlns:xlink="http://www.w3.org/1999/xlink" x="0px" y="0px"
	 viewBox="0 0 600 450" style="enable-background:new 0 0 600 450;" xml:space="preserve">
<style type="text/css">
	.st0{fill:#0D405F;}
</style>
<path class="st0" d="M280.6,266.3c1.5-0.9,3.3-1.3,5.1-1.3c1.4,0,2.8,0.3,4,0.9c1.3,0.6,2.4,1.5,3.3,2.5l3.3-3.3
	c-1.3-1.6-2.9-2.8-4.7-3.6c-2.2-0.9-4.5-1.3-6.9-1.2c-2.4,0.1-4.7,0.8-6.7,1.9c-2.2,1.3-4,3.1-5.3,5.4c-1.3,2.4-1.9,5-1.9,7.7
	c0,2.7,0.6,5.3,1.9,7.7c1.2,2.2,3,4.1,5.2,5.4c2.3,1.3,4.9,2,7.5,1.9c2.1,0,4.2-0.4,6.2-1.2c1.8-0.8,3.5-2.1,4.7-3.6l-3.3-3.3
	c-0.9,1.1-2,2-3.3,2.6c-1.3,0.6-2.7,0.9-4.1,0.9c-1.8,0-3.5-0.4-5.1-1.3c-1.5-0.9-2.7-2.1-3.5-3.6c-0.8-1.6-1.3-3.5-1.3-5.3
	s0.4-3.6,1.3-5.3C277.9,268.5,279.1,267.2,280.6,266.3L280.6,266.3z M275.5,232.5h14V245h5v-29.2h-5v12h-14v-12h-5V245h5V232.5z
	 M300.7,245h5v-29.2h-5V245z M327.1,217.1c-1.9-0.9-4-1.3-6.1-1.2h-9V245h5v-8.4h4c2.1,0,4.2-0.4,6.1-1.2c1.7-0.8,3.1-2,4-3.6
	c0.9-1.7,1.4-3.6,1.4-5.5c0-1.9-0.5-3.8-1.4-5.5C330.2,219.1,328.8,217.9,327.1,217.1L327.1,217.1z M325.7,230.5
	c-1.1,1-2.8,1.5-5,1.5H317v-11.6h3.7c2.2,0,3.9,0.5,5,1.5c1.1,1,1.7,2.4,1.7,4.3C327.4,228.1,326.9,229.5,325.7,230.5L325.7,230.5z
	 M376.3,215.9L362.8,245h5.7l3-6.7h15l3,6.7h5.8l-13.5-29.2H376.3z M373.4,234l5.6-12.7l5.6,12.7H373.4z M322.6,262.2
	c-2.3-1.3-4.9-1.9-7.6-1.9s-5.2,0.7-7.6,1.9c-2.2,1.3-4.1,3.1-5.3,5.4c-1.3,2.4-1.9,5-1.9,7.7c0,2.7,0.7,5.3,1.9,7.7
	c1.2,2.2,3.1,4.1,5.3,5.4c2.3,1.3,4.9,1.9,7.6,1.9s5.2-0.7,7.6-1.9c2.2-1.3,4-3.1,5.3-5.4c1.3-2.4,1.9-5,1.9-7.7s-0.7-5.3-1.9-7.7
	C326.6,265.3,324.8,263.5,322.6,262.2L322.6,262.2z M323.4,280.5c-0.8,1.5-2,2.8-3.4,3.7c-1.5,0.9-3.2,1.3-4.9,1.3
	c-1.7,0-3.4-0.5-4.9-1.3c-1.5-0.9-2.7-2.1-3.4-3.7c-0.8-1.6-1.3-3.4-1.3-5.3s0.4-3.6,1.3-5.3c0.8-1.5,2-2.8,3.4-3.7
	c1.5-0.9,3.2-1.3,4.9-1.3c1.7,0,3.4,0.5,4.9,1.3c1.5,0.9,2.7,2.1,3.4,3.7c0.8,1.6,1.3,3.4,1.3,5.3S324.2,278.9,323.4,280.5z
	 M493.4,260.7v4.6h9.1v24.6h5.1v-24.6h9.1v-4.6H493.4z M485.3,280.4l-15.1-19.7H466v29.2h5.1v-19.7l15.1,19.7h4.2v-29.2h-5.1V280.4z
	 M359.1,260.7l-8.5,15.5l-8.7-15.5h-6.3v29.2h5.4v-20.2l9.5,16.8l9.7-17.1l0,20.4h5.4l0-29.2H359.1z M386.7,261.9
	c-1.9-0.9-4.1-1.3-6.2-1.2h-9.1v29.2h5.1v-8.4h4c2.1,0,4.3-0.4,6.2-1.2c1.7-0.8,3.1-2,4.1-3.6c0.9-1.7,1.4-3.6,1.4-5.5
	c0-1.9-0.5-3.8-1.4-5.5C389.8,264,388.4,262.7,386.7,261.9L386.7,261.9z M385.3,275.4c-1.1,1-2.8,1.5-5.1,1.5h-3.8v-11.6h3.8
	c2.2,0,3.9,0.5,5.1,1.5c1.1,1,1.7,2.4,1.7,4.3C387.1,272.9,386.5,274.4,385.3,275.4z M353.2,238.3l3,6.7h5.8l-13.5-29.2h-5.5
	L329.6,245h5.7l3-6.7H353.2z M345.8,221.3l5.6,12.7h-11.2L345.8,221.3z M402,260.7h-5.1v29.2h19.4v-4.6H402V260.7z M420.5,289.8h5.1
	v-29.2h-5.1V289.8z M215.5,322.7c0.1,7,0.2,12.1,0.3,14.6c0.1,0.3,0.1,0.7,0,1c0,0.4,0,0.7,0,0.7c0,1.4,0.2,2.8,0.6,4.1
	c0.4-1.3,0.6-2.7,0.6-4.1c0-0.5,0.2-7.8,0.5-19.5c-0.1,0.1-0.2,0.2-0.2,0.3C216.6,320.7,216,321.7,215.5,322.7z M194.7,176.7
	c1.6-1.7,3.1-3.7,4.2-5.8c-0.8,1.8-3.9,8.6-0.9,9.2c3.3,0.6,7-0.4,13.7-8.9c-0.2-10.9-0.4-20.4-0.5-27.6l-3.6,0c-0.2,0-0.3,0-0.5,0
	c-2,0-5.3-0.2-7.5-3.5c-2.4-3.6-2.5-7.3-2.6-10c-0.1-3.9-1.1-11-6-15c-3.4-2.7-12.6-4.8-21.1-1.4c-2.8,1.1-8.4,4-13.9,6.7
	c-5,2.5-11.4,5.6-13.4,5.6c3.3-1.5,7.7-3.7,12.5-6.4c5.5-3,11.3-6.2,14.2-7.4c5.8-2.3,16.9-3,22.6,1.6c5.4,4.4,6.5,12,6.6,16.1
	c0.1,2.7,0.2,6,2.3,9.3c1.9,2.8,4.9,2.8,6.7,2.8l0.4,0h3.2c0-0.9,0-1.7,0-2.6c-3.2,0.2-7.8,0.4-9.8-3.9c-2.4-5.2,0.2-18.5-7.8-24.1
	c-8-5.6-20.8-4.2-32.2,2.4c-11.3,6.5-26.3,15-44.8,22.4c-18.5,7.4-30,10.4-32.2,10.7c-2.1,0.4,1.7,1.8,9.6,2
	c7.9,0.2,14.5-0.4,14.5-0.4l58-26.4c0,0-50,24.9-54.2,27.6c-4.2,2.7-7.6,3.6-7.3,6.1s3.5,2.2,12.3,2c8.8-0.2,10.7-1,13.7-1.9
	c3-0.9,35.5-15.9,35.5-15.9s-34.8,17.3-39.8,21.3c-5,4,0.4,5.3,3.8,5.4c3.5,0.1,12.8-0.4,18-3c5.2-2.6,21.4-13,21.4-13
	s-16,11.5-19.1,14.1c-2.5,2.1-3.8,3.9-3.2,6.1c0.9,2.8,5.7,2.5,12.1,0.2c0,0,6.6-2.3,9.1-4.5c2.5-2.3,9.5-8.5,9.5-8.5
	s-8.3,8.6-10.4,12.3c-2,3.7-2.4,4.6-1.4,6.7c1.4,3,12-0.1,15-3.3c2.2-2.5,4.3-5.1,6.2-7.9c0,0-3.2,5.2-3.9,8.2
	c-0.7,3-1.5,5.4,1.4,5.7C188.3,180.3,191.3,180.4,194.7,176.7z M214.5,244.8c0.3-0.2,0.6-0.4,0.9-0.6l0,0c0.6-0.4,1.1-0.7,1.5-1.1
	c0.8-0.5,1.6-1.1,2.4-1.6c0.1-5.7,0.3-11.5,0.4-17.2c-1.6-0.7-3.3-1.4-5.1-2.1v0c-0.1,0-0.2-0.1-0.3-0.1c-0.2-0.1-0.3-0.1-0.5-0.2v0
	c-1.2-0.4-2.3-0.9-3.6-1.3c-1.5-0.6-3-1.1-4.5-1.7c-10,5.3-12,7.8-12,12.7c0,6.9,5.9,10,16.1,16.5
	C211.4,246.9,213,245.8,214.5,244.8z M202.2,232.5c0,0-0.7-4.4,10.6-9.5c0.3-0.1,0.6-0.3,0.9-0.4c0.1,6.9,0.2,13.8,0.4,20.7
	C208.5,239.5,202.2,235.9,202.2,232.5z M219.3,317.4c-0.5,0.6-1,1.2-1.5,1.7c2.9,3.9,2.7,7.7,1.1,12.6c1.5-1.7,4.5-6,2-11.6
	C220.4,319.2,219.9,318.3,219.3,317.4L219.3,317.4z M214.7,276.4c1.1,1.1,2.4,2.4,3.7,3.7l0,0c0.8,0.8,1.6,1.6,2.5,2.5
	c0.1,0.1,0.3,0.2,0.5,0.4c6.8-5.9,13-11.5,13-18.5c0-5.5-5.3-10.5-10.6-14.5c-0.5,0.3-1,0.6-1.5,1c-1.2,0.8-2.3,1.5-3.3,2.2l0,0
	c0,0-0.1,0-0.1,0.1c-0.2,0.2-0.5,0.3-0.7,0.5v0c-1.4,1-2.7,1.9-3.9,2.8C214.5,263.3,214.6,270,214.7,276.4L214.7,276.4z M219,254.3
	c6.6,4.8,9.2,7.9,9.2,11.3c0,3.5-3.7,7.6-9.7,13.6C218.6,271.2,218.8,262.9,219,254.3L219,254.3z M255.5,158.2c0,0,7,6.2,9.5,8.5
	c2.5,2.3,9.1,4.5,9.1,4.5c6.4,2.3,11.2,2.6,12.1-0.2c0.7-2.2-0.7-4.1-3.2-6.1c-3.1-2.6-19.1-14.1-19.1-14.1s16.2,10.4,21.4,13
	c5.2,2.6,14.5,3.1,18,3c3.5-0.1,8.8-1.4,3.8-5.4c-5-4-39.8-21.3-39.8-21.3s32.4,15.1,35.5,15.9c3,0.9,4.9,1.6,13.7,1.9
	c8.8,0.2,11.9,0.5,12.3-2c0.4-2.4-3.1-3.3-7.3-6.1c-4.2-2.7-54.2-27.6-54.2-27.6l58,26.4c0,0,6.6,0.6,14.5,0.4
	c7.9-0.2,11.7-1.6,9.6-2c-2.1-0.4-13.7-3.3-32.2-10.7c-18.5-7.4-33.5-15.8-44.8-22.4c-11.3-6.5-24.2-8-32.2-2.4s-5.4,18.8-7.8,24.1
	c-2,4.3-6.6,4.1-9.8,3.9c0,0.8,0,1.7-0.1,2.6h3.3l0.4,0c1.8,0,4.8,0,6.7-2.8c2.1-3.2,2.2-6.6,2.3-9.3c0.1-4.1,1.2-11.7,6.6-16.1
	c5.7-4.6,16.8-3.9,22.6-1.6c2.9,1.1,8.7,4.3,14.2,7.4c4.8,2.7,9.2,4.9,12.5,6.4c-2.1,0-8.4-3.1-13.4-5.6c-5.4-2.8-11-5.6-13.9-6.7
	c-8.5-3.4-17.7-1.3-21.1,1.4c-5,4-5.9,11.1-6,15c-0.1,2.7-0.2,6.5-2.6,10c-2.1,3.3-5.4,3.5-7.5,3.5c-0.2,0-0.3,0-0.5,0l-3.6,0
	c-0.2,7.2-0.4,16.6-0.6,27.3c6.8,8.7,10.7,9.8,13.9,9.1c3-0.6,0-7.4-0.9-9.2c1.2,2.1,2.6,4,4.2,5.8c3.3,3.7,6.4,3.6,9.4,3.2
	c3-0.4,2.1-2.7,1.4-5.7c-0.7-3-3.9-8.2-3.9-8.2c1.9,2.7,4,5.4,6.2,7.9c3,3.2,13.6,6.4,15,3.3c0.9-2,0.6-3-1.4-6.7
	C263.9,166.8,255.5,158.2,255.5,158.2z M217,127.6c1.6,0,3.2-0.5,4.5-1.4c1.3-0.9,2.4-2.2,3-3.6c0.6-1.5,0.8-3.1,0.5-4.7
	c-0.3-1.6-1.1-3-2.2-4.2c-1.1-1.1-2.6-1.9-4.2-2.2c-1.6-0.3-3.2-0.2-4.7,0.5c-1.5,0.6-2.8,1.7-3.6,3c-0.9,1.3-1.4,2.9-1.4,4.5
	c0,1.1,0.2,2.1,0.6,3.1c0.4,1,1,1.9,1.8,2.6c0.8,0.8,1.6,1.4,2.6,1.8C214.8,127.4,215.9,127.6,217,127.6L217,127.6z M243.6,188.4
	c0,0-0.2-5.6-9.3-6.2c-9.3-0.6-9.7,3.4-9.5,4.9v0c0.7,0,1.3,0.2,1.3,0.4c0,0.2-0.5,0.4-1.1,0.4c0.5,1.5,1.9,3.3,5.9,5.3
	c3.3,1.6,4.9,1.5,6.8,1.2c0,0,2.2,1.3,2.2,3.4c0,2-3.5,5.9-19.9,14.1c1-44.2,1.9-83,1.9-83h1c0.4,0,0.8-0.2,1.1-0.5
	c0.3-0.3,0.5-0.7,0.5-1.1v-0.5c0-0.2,0-0.4-0.1-0.6c-0.1-0.2-0.2-0.4-0.4-0.5c-0.9,1-1.9,1.8-3.1,2.4s-2.5,0.8-3.8,0.8
	c-1.3,0-2.6-0.3-3.8-0.8s-2.3-1.4-3.1-2.4c-0.2,0.2-0.3,0.3-0.4,0.5c-0.1,0.2-0.1,0.4-0.1,0.6v0.5c0,0.4,0.2,0.8,0.5,1.1
	c0.3,0.3,0.7,0.5,1.1,0.5h1c0,0,0.7,37.7,1.4,81.1c1.4,0.7,2.8,1.4,4.4,2.2c0.2,0.1,0.5,0.2,0.7,0.3c3.7,1.8,6.8,3.3,9.4,4.7
	c8.8-3.4,17.4-7.3,20-12.8C252.8,194.2,243.6,188.4,243.6,188.4z M231.4,186.1c-1,0-1.8-0.5-1.8-1.1c0-0.6,0.8-1.1,1.8-1.1
	c1,0,1.8,0.5,1.8,1.1C233.2,185.6,232.4,186.1,231.4,186.1L231.4,186.1z M215.5,312.7c0.8-1,1.5-2,2.3-2.9c0.1-5.7,0.3-12.1,0.4-19
	c-1-1-2.1-2-3.3-3.1v0c-0.4-0.3-0.7-0.7-1.1-1c-0.5-0.5-1-0.9-1.5-1.3c-2.8,2.6-8.3,8.4-8.3,13.4c0,5.9,5.7,11.9,10,16.2
	C214.4,314.1,214.9,313.4,215.5,312.7L215.5,312.7z M214.9,288.9c0.2,8.5,0.3,16.3,0.4,23c-3.3-4.4-6.8-8.9-6.8-12
	C208.5,297,210.2,293.7,214.9,288.9L214.9,288.9z M217.2,213.5c-19.5-9.4-23.5-13.7-23.5-15.8c0-2.1,2.2-3.4,2.2-3.4
	c1.9,0.4,3.5,0.4,6.8-1.2c4-1.9,5.4-3.8,5.9-5.3c-0.6,0-1.1-0.2-1.1-0.4c0-0.2,0.6-0.4,1.3-0.4c0,0,0-0.1,0-0.1
	c0.1-1.5-0.4-5.4-9.6-4.8c-9.1,0.6-9.3,6.2-9.3,6.2s-9.2,5.9-4.4,15.9c4.2,8.9,23.9,13.6,35.3,18.7c11.3,5.1,10.6,9.5,10.6,9.5
	c0,3.8-7.6,7.8-13.6,12c-6,4.2-18.7,11.5-18.7,20.1c0,7.9,7.9,14,15.6,20.8c7.8,6.8,10.3,10.9,10.3,14.7c0,5.2-8.6,12.2-13,20.9
	s4.3,22.2,1.6,15.1c-2.8-7.1-1.3-12.1,2.3-17.1c4.4-6.1,13.8-12.1,13.8-20.2c0-6.8-9.9-14.8-9.9-14.8c-8.8-8.8-14.4-13.8-14.4-18.2
	c0-4.4,4.2-8.3,16-16c11.7-7.6,18.6-10.6,18.6-18C240,225.2,236.7,222.9,217.2,213.5z M202.2,184c1,0,1.8,0.5,1.8,1.1
	c0,0.6-0.8,1.1-1.8,1.1s-1.8-0.5-1.8-1.1C200.4,184.5,201.2,184,202.2,184L202.2,184z M443,260.7l-13.5,29.2h5.7l3-6.7h15l3,6.7h5.8
	l-13.5-29.2H443z M440.1,278.9l5.6-12.7l5.6,12.7H440.1z"/>
</svg>
